# xmcd
#
# Track frame offsets: 
#        150
#        21527
#        45257
#        65807
#        83447
#        98527
#        122347
#        131980
#        153585
#        167655
#        185772
#        202230
#        215502
#
# Disc length: 3041 seconds
#
# Revision: 0
# Processed by: cddbd v1.5.1PL0 Copyright (c) Steve Scherf et al.
# Submitted via: ExactAudioCopy v0.95a5
#
DISCID=b70bdf0d
DTITLE=Willy Evans - Willy Evans Trio
DYEAR=1900
DGENRE=Blues
TTITLE0=Working On The Blues
TTITLE1=Modern Times
TTITLE2=Soft Arms Killing
TTITLE3=All These Girls
TTITLE4=Gone Gone Gone
TTITLE5=On My Mind
TTITLE6=I Always Know
TTITLE7=Ring Of Fire
TTITLE8=Rainmaker
TTITLE9=Be Good 0R Fry
TTITLE10=Baby She's Mad
TTITLE11=Same Old Thing
TTITLE12=Let Love Be
EXTD=
EXTT0=
EXTT1=
EXTT2=
EXTT3=
EXTT4=
EXTT5=
EXTT6=
EXTT7=
EXTT8=
EXTT9=
EXTT10=
EXTT11=
EXTT12=
PLAYORDER=
